# xmcd
#
# Track frame offsets:
#	150
#	23545
#	40295
#	54526
#	69789
#	88935
#	101289
#	120091
#	137913
#	156048
#	170364
#	185912
#
# Disc length: 2677 seconds
#
# Revision: 524297
# Processed by: cddbd v1.5.2PL0 Copyright (c) Steve Scherf et al.
# Submitted via: EZCDAudioConverter 8.0.7.1
#
DISCID=930a730c
DTITLE=Turnpike Troubadours - The Turnpike Troubadours
DYEAR=2015
DGENRE=Country
TTITLE0=The Bird Hunters
TTITLE1=The Mercury
TTITLE2=Down Here
TTITLE3=Time Of Day
TTITLE4=Ringing In The Year
TTITLE5=A Little Song
TTITLE6=Long Drive Home
TTITLE7=Easton and Main
TTITLE8=7 Oaks
TTITLE9=Doreen
TTITLE10=Fall Out Of Love
TTITLE11=Bossier City
EXTD=
EXTT0=
EXTT1=
EXTT2=
EXTT3=
EXTT4=
EXTT5=
EXTT6=
EXTT7=
EXTT8=
EXTT9=
EXTT10=
EXTT11=
PLAYORDER=
